<svg width="22" height="22" viewBox="0 0 22 22" fill="none" xmlns="http://www.w3.org/2000/svg">
<path fill-rule="evenodd" clip-rule="evenodd" d="M3.96051 3.96045C2.66147 5.25949 2.05005 7.42738 2.05005 11.0368C2.05005 14.6463 2.66147 16.8142 3.96051 18.1132C5.25956 19.4123 7.42744 20.0237 11.0369 20.0237C14.6463 20.0237 16.8142 19.4123 18.1133 18.1132C19.4123 16.8142 20.0237 14.6463 20.0237 11.0368C20.0237 7.42738 19.4123 5.25949 18.1133 3.96045C16.8142 2.6614 14.6463 2.04999 11.0369 2.04999C7.42744 2.04999 5.25956 2.6614 3.96051 3.96045ZM2.89985 2.89979C4.6437 1.15594 7.34424 0.549988 11.0369 0.549988C14.7295 0.549988 17.4301 1.15594 19.1739 2.89979C20.9178 4.64364 21.5237 7.34418 21.5237 11.0368C21.5237 14.7295 20.9178 17.43 19.1739 19.1739C17.4301 20.9177 14.7295 21.5237 11.0369 21.5237C7.34424 21.5237 4.6437 20.9177 2.89985 19.1739C1.156 17.43 0.550049 14.7295 0.550049 11.0368C0.550049 7.34418 1.156 4.64364 2.89985 2.89979Z" fill="black"/>
</svg>
