<svg width="22" height="20" viewBox="0 0 22 20" fill="none" xmlns="http://www.w3.org/2000/svg">
<path d="M5.636 16.364C7.10845 17.8365 9.04594 18.7528 11.1183 18.9568C13.1906 19.1608 15.2696 18.6399 17.0009 17.4828C18.7322 16.3257 20.0087 14.6041 20.6129 12.6113C21.217 10.6185 21.1115 8.47782 20.3142 6.55414C19.5169 4.63045 18.0772 3.04276 16.2404 2.06164C14.4037 1.08051 12.2835 0.766665 10.2413 1.17358C8.19909 1.58049 6.36116 2.68299 5.04073 4.29318C3.72031 5.90338 2.99909 7.92163 3 10.004V12" stroke="black" stroke-linecap="round" stroke-linejoin="round"/>
<path d="M1 10L3 12L5 10M11 6V11H16" stroke="black" stroke-linecap="round" stroke-linejoin="round"/>
</svg>
